<mxfile host="app.diagrams.net" modified="2023-07-25T20:09:48.106Z" agent="Mozilla/5.0 (Windows NT 10.0; Win64; x64) AppleWebKit/537.36 (KHTML, like Gecko) Chrome/114.0.0.0 Safari/537.36" etag="vSPtVPwNYDRBNU4EpMhC" version="21.6.5" type="device" pages="7">
  <diagram name="Exercício 1.0" id="_MilLpXzHNdtjUNH8scJ">
    <mxGraphModel dx="1750" dy="915" grid="1" gridSize="10" guides="1" tooltips="1" connect="1" arrows="1" fold="1" page="1" pageScale="1" pageWidth="827" pageHeight="1169" math="0" shadow="0">
      <root>
        <mxCell id="0" />
        <mxCell id="1" parent="0" />
        <mxCell id="G6lXipXRo0yH6Z6lHzOK-14" style="edgeStyle=orthogonalEdgeStyle;rounded=0;orthogonalLoop=1;jettySize=auto;html=1;entryX=0;entryY=0.5;entryDx=0;entryDy=0;endArrow=none;endFill=0;" parent="1" source="G6lXipXRo0yH6Z6lHzOK-1" target="G6lXipXRo0yH6Z6lHzOK-11" edge="1">
          <mxGeometry relative="1" as="geometry" />
        </mxCell>
        <mxCell id="G6lXipXRo0yH6Z6lHzOK-15" style="edgeStyle=orthogonalEdgeStyle;rounded=0;orthogonalLoop=1;jettySize=auto;html=1;entryX=0;entryY=0.5;entryDx=0;entryDy=0;endArrow=none;endFill=0;" parent="1" source="G6lXipXRo0yH6Z6lHzOK-1" target="G6lXipXRo0yH6Z6lHzOK-10" edge="1">
          <mxGeometry relative="1" as="geometry" />
        </mxCell>
        <mxCell id="G6lXipXRo0yH6Z6lHzOK-16" style="edgeStyle=orthogonalEdgeStyle;rounded=0;orthogonalLoop=1;jettySize=auto;html=1;entryX=0;entryY=0.5;entryDx=0;entryDy=0;endArrow=none;endFill=0;" parent="1" source="G6lXipXRo0yH6Z6lHzOK-1" target="G6lXipXRo0yH6Z6lHzOK-13" edge="1">
          <mxGeometry relative="1" as="geometry" />
        </mxCell>
        <mxCell id="G6lXipXRo0yH6Z6lHzOK-1" value="Filme" style="rounded=0;whiteSpace=wrap;html=1;fillColor=#ffe6cc;strokeColor=#d79b00;" parent="1" vertex="1">
          <mxGeometry x="360" y="220" width="120" height="60" as="geometry" />
        </mxCell>
        <mxCell id="G6lXipXRo0yH6Z6lHzOK-7" style="edgeStyle=orthogonalEdgeStyle;rounded=0;orthogonalLoop=1;jettySize=auto;html=1;entryX=0.5;entryY=1;entryDx=0;entryDy=0;endArrow=none;endFill=0;" parent="1" source="G6lXipXRo0yH6Z6lHzOK-2" target="G6lXipXRo0yH6Z6lHzOK-1" edge="1">
          <mxGeometry relative="1" as="geometry" />
        </mxCell>
        <mxCell id="G6lXipXRo0yH6Z6lHzOK-8" style="edgeStyle=orthogonalEdgeStyle;rounded=0;orthogonalLoop=1;jettySize=auto;html=1;exitX=0.5;exitY=1;exitDx=0;exitDy=0;entryX=0.5;entryY=0;entryDx=0;entryDy=0;endArrow=none;endFill=0;" parent="1" source="G6lXipXRo0yH6Z6lHzOK-2" target="G6lXipXRo0yH6Z6lHzOK-3" edge="1">
          <mxGeometry relative="1" as="geometry" />
        </mxCell>
        <mxCell id="G6lXipXRo0yH6Z6lHzOK-2" value="Possui" style="rhombus;whiteSpace=wrap;html=1;fillColor=#e1d5e7;strokeColor=#9673a6;" parent="1" vertex="1">
          <mxGeometry x="360" y="320" width="120" height="80" as="geometry" />
        </mxCell>
        <mxCell id="G6lXipXRo0yH6Z6lHzOK-18" style="edgeStyle=orthogonalEdgeStyle;rounded=0;orthogonalLoop=1;jettySize=auto;html=1;entryX=0;entryY=0.5;entryDx=0;entryDy=0;endArrow=none;endFill=0;" parent="1" source="G6lXipXRo0yH6Z6lHzOK-3" target="G6lXipXRo0yH6Z6lHzOK-17" edge="1">
          <mxGeometry relative="1" as="geometry" />
        </mxCell>
        <mxCell id="G6lXipXRo0yH6Z6lHzOK-3" value="Genêro" style="rounded=0;whiteSpace=wrap;html=1;fillColor=#ffe6cc;strokeColor=#d79b00;" parent="1" vertex="1">
          <mxGeometry x="360" y="440" width="120" height="60" as="geometry" />
        </mxCell>
        <mxCell id="G6lXipXRo0yH6Z6lHzOK-10" value="&lt;font style=&quot;font-size: 10px;&quot;&gt;Data Lançamento&lt;/font&gt;" style="ellipse;whiteSpace=wrap;html=1;fillColor=#d5e8d4;strokeColor=#82b366;" parent="1" vertex="1">
          <mxGeometry x="520" y="250" width="80" height="40" as="geometry" />
        </mxCell>
        <mxCell id="G6lXipXRo0yH6Z6lHzOK-11" value="&lt;font style=&quot;font-size: 10px;&quot;&gt;Nome&lt;/font&gt;" style="ellipse;whiteSpace=wrap;html=1;fillColor=#d5e8d4;strokeColor=#82b366;" parent="1" vertex="1">
          <mxGeometry x="520" y="200" width="80" height="40" as="geometry" />
        </mxCell>
        <mxCell id="G6lXipXRo0yH6Z6lHzOK-12" value="Você deverá criar a modelagem para o catálogo de filmes, observando a seguinte situação:&#xa;&#xa;&#xa;- um filme possui apenas um único gênero.&#xa;- um gênero pode definir mais de um filme." style="text;whiteSpace=wrap;" parent="1" vertex="1">
          <mxGeometry x="40" y="100" width="490" height="100" as="geometry" />
        </mxCell>
        <mxCell id="G6lXipXRo0yH6Z6lHzOK-13" value="&lt;span style=&quot;font-size: 10px;&quot;&gt;Duração&lt;/span&gt;" style="ellipse;whiteSpace=wrap;html=1;fillColor=#d5e8d4;strokeColor=#82b366;" parent="1" vertex="1">
          <mxGeometry x="520" y="150" width="80" height="40" as="geometry" />
        </mxCell>
        <mxCell id="G6lXipXRo0yH6Z6lHzOK-17" value="&lt;font style=&quot;font-size: 10px;&quot;&gt;Nome&lt;/font&gt;" style="ellipse;whiteSpace=wrap;html=1;fillColor=#d5e8d4;strokeColor=#82b366;" parent="1" vertex="1">
          <mxGeometry x="510" y="450" width="80" height="40" as="geometry" />
        </mxCell>
        <mxCell id="G6lXipXRo0yH6Z6lHzOK-19" value="1" style="text;html=1;align=center;verticalAlign=middle;resizable=0;points=[];autosize=1;strokeColor=#d6b656;fillColor=#fff2cc;" parent="1" vertex="1">
          <mxGeometry x="420" y="280" width="30" height="30" as="geometry" />
        </mxCell>
        <mxCell id="G6lXipXRo0yH6Z6lHzOK-20" value="N" style="text;html=1;align=center;verticalAlign=middle;resizable=0;points=[];autosize=1;strokeColor=#d6b656;fillColor=#fff2cc;" parent="1" vertex="1">
          <mxGeometry x="420" y="410" width="30" height="30" as="geometry" />
        </mxCell>
      </root>
    </mxGraphModel>
  </diagram>
  <diagram id="0at_4rakV3we78lnPThB" name="Exercício 1.1">
    <mxGraphModel dx="1500" dy="784" grid="1" gridSize="10" guides="1" tooltips="1" connect="1" arrows="1" fold="1" page="1" pageScale="1" pageWidth="827" pageHeight="1169" math="0" shadow="0">
      <root>
        <mxCell id="0" />
        <mxCell id="1" parent="0" />
        <mxCell id="7b-zn7ANZq6Qb3BuOmxf-1" value="Construa a modelagem que represente pessoas e seus dados, observando que:&#xa;&#xa;&#xa;- uma pessoa pode ter vários telefones e vários emails, porém, pode possuir somente uma CNH.&#xa;&#xa;&#xa;DQL&#xa;&#xa;&#xa;- listar as pessoas em ordem alfabética reversa, mostrando seus telefones, seus e-mails e suas CNHs" style="text;whiteSpace=wrap;" parent="1" vertex="1">
          <mxGeometry x="50" y="40" width="560" height="180" as="geometry" />
        </mxCell>
        <mxCell id="xHnOT9QTdaAPmauZby4j-7" style="edgeStyle=orthogonalEdgeStyle;rounded=0;orthogonalLoop=1;jettySize=auto;html=1;entryX=0;entryY=0.5;entryDx=0;entryDy=0;endArrow=none;endFill=0;" edge="1" parent="1" source="7b-zn7ANZq6Qb3BuOmxf-2" target="xHnOT9QTdaAPmauZby4j-6">
          <mxGeometry relative="1" as="geometry" />
        </mxCell>
        <mxCell id="xHnOT9QTdaAPmauZby4j-13" style="edgeStyle=orthogonalEdgeStyle;rounded=0;orthogonalLoop=1;jettySize=auto;html=1;entryX=0.5;entryY=1;entryDx=0;entryDy=0;endArrow=none;endFill=0;" edge="1" parent="1" source="7b-zn7ANZq6Qb3BuOmxf-2" target="xHnOT9QTdaAPmauZby4j-12">
          <mxGeometry relative="1" as="geometry" />
        </mxCell>
        <mxCell id="7b-zn7ANZq6Qb3BuOmxf-2" value="Pessoa" style="rounded=0;whiteSpace=wrap;html=1;fillColor=#ffe6cc;strokeColor=#d79b00;" parent="1" vertex="1">
          <mxGeometry x="60" y="310" width="160" height="80" as="geometry" />
        </mxCell>
        <mxCell id="7b-zn7ANZq6Qb3BuOmxf-6" style="edgeStyle=orthogonalEdgeStyle;rounded=0;orthogonalLoop=1;jettySize=auto;html=1;entryX=0.5;entryY=1;entryDx=0;entryDy=0;endArrow=none;endFill=0;" parent="1" source="7b-zn7ANZq6Qb3BuOmxf-4" target="7b-zn7ANZq6Qb3BuOmxf-2" edge="1">
          <mxGeometry relative="1" as="geometry" />
        </mxCell>
        <mxCell id="xHnOT9QTdaAPmauZby4j-3" style="edgeStyle=orthogonalEdgeStyle;rounded=0;orthogonalLoop=1;jettySize=auto;html=1;entryX=0.5;entryY=0;entryDx=0;entryDy=0;endArrow=none;endFill=0;" edge="1" parent="1" source="7b-zn7ANZq6Qb3BuOmxf-4" target="xHnOT9QTdaAPmauZby4j-1">
          <mxGeometry relative="1" as="geometry" />
        </mxCell>
        <mxCell id="7b-zn7ANZq6Qb3BuOmxf-4" value="Possuí" style="rhombus;whiteSpace=wrap;html=1;fillColor=#e1d5e7;strokeColor=#9673a6;" parent="1" vertex="1">
          <mxGeometry x="80" y="430" width="120" height="80" as="geometry" />
        </mxCell>
        <mxCell id="7b-zn7ANZq6Qb3BuOmxf-12" value="1" style="text;html=1;align=center;verticalAlign=middle;resizable=0;points=[];autosize=1;strokeColor=#d6b656;fillColor=#fff2cc;" parent="1" vertex="1">
          <mxGeometry x="150" y="390" width="30" height="30" as="geometry" />
        </mxCell>
        <mxCell id="xHnOT9QTdaAPmauZby4j-1" value="Telefone" style="rounded=0;whiteSpace=wrap;html=1;fillColor=#ffe6cc;strokeColor=#d79b00;" vertex="1" parent="1">
          <mxGeometry x="60" y="550" width="160" height="80" as="geometry" />
        </mxCell>
        <mxCell id="xHnOT9QTdaAPmauZby4j-5" value="n" style="text;html=1;align=center;verticalAlign=middle;resizable=0;points=[];autosize=1;strokeColor=#d6b656;fillColor=#fff2cc;" vertex="1" parent="1">
          <mxGeometry x="150" y="520" width="30" height="30" as="geometry" />
        </mxCell>
        <mxCell id="xHnOT9QTdaAPmauZby4j-9" style="edgeStyle=orthogonalEdgeStyle;rounded=0;orthogonalLoop=1;jettySize=auto;html=1;entryX=0;entryY=0.5;entryDx=0;entryDy=0;endArrow=none;endFill=0;" edge="1" parent="1" source="xHnOT9QTdaAPmauZby4j-6" target="xHnOT9QTdaAPmauZby4j-8">
          <mxGeometry relative="1" as="geometry" />
        </mxCell>
        <mxCell id="xHnOT9QTdaAPmauZby4j-6" value="Possuí" style="rhombus;whiteSpace=wrap;html=1;fillColor=#e1d5e7;strokeColor=#9673a6;" vertex="1" parent="1">
          <mxGeometry x="260" y="310" width="120" height="80" as="geometry" />
        </mxCell>
        <mxCell id="xHnOT9QTdaAPmauZby4j-8" value="Email" style="rounded=0;whiteSpace=wrap;html=1;fillColor=#ffe6cc;strokeColor=#d79b00;" vertex="1" parent="1">
          <mxGeometry x="420" y="310" width="160" height="80" as="geometry" />
        </mxCell>
        <mxCell id="xHnOT9QTdaAPmauZby4j-10" value="1" style="text;html=1;align=center;verticalAlign=middle;resizable=0;points=[];autosize=1;strokeColor=#d6b656;fillColor=#fff2cc;" vertex="1" parent="1">
          <mxGeometry x="220" y="360" width="30" height="30" as="geometry" />
        </mxCell>
        <mxCell id="xHnOT9QTdaAPmauZby4j-11" value="n" style="text;html=1;align=center;verticalAlign=middle;resizable=0;points=[];autosize=1;strokeColor=#d6b656;fillColor=#fff2cc;" vertex="1" parent="1">
          <mxGeometry x="390" y="360" width="30" height="30" as="geometry" />
        </mxCell>
        <mxCell id="xHnOT9QTdaAPmauZby4j-12" value="CNH" style="ellipse;whiteSpace=wrap;html=1;fillColor=#d5e8d4;strokeColor=#82b366;" vertex="1" parent="1">
          <mxGeometry x="105" y="230" width="70" height="40" as="geometry" />
        </mxCell>
      </root>
    </mxGraphModel>
  </diagram>
  <diagram id="8qWvO8jRTORzqstNcFLe" name="Exercício 1.2">
    <mxGraphModel dx="2927" dy="982" grid="1" gridSize="10" guides="1" tooltips="1" connect="1" arrows="1" fold="1" page="1" pageScale="1" pageWidth="827" pageHeight="1169" math="0" shadow="0">
      <root>
        <mxCell id="0" />
        <mxCell id="1" parent="0" />
        <mxCell id="9279Y2dlnWFJtDddr8eM-1" value="Construa o Modelo Entidade Relacionamento considerando o seguinte cenário:&#xa;&#xa;&#xa;- uma empresa possui vários veículos&#xa;- um veículo possui marca(gm, ford, fiat), modelo(onix, fiesta, argo) e placa&#xa;- um cliente (cpf, nome) aluga um ou mais veículos&#xa;&#xa;&#xa;DML&#xa;&#xa;&#xa;- um registro de aluguel deve conter qual cliente alugou, o veículo alugado, data de retirada e data de devolução&#xa;&#xa;&#xa;&#xa;&#xa;DQL&#xa;&#xa;&#xa;- listar todos os alugueis mostrando as datas de início e fim, o nome do cliente que alugou e nome do modelo do carro&#xa;- listar os alugueis de um determinado cliente mostrando seu nome, as datas de início e fim e o nome do modelo do carro" style="text;whiteSpace=wrap;" parent="1" vertex="1">
          <mxGeometry x="40" y="40" width="560" height="370" as="geometry" />
        </mxCell>
        <mxCell id="9279Y2dlnWFJtDddr8eM-5" style="edgeStyle=orthogonalEdgeStyle;rounded=0;orthogonalLoop=1;jettySize=auto;html=1;endArrow=none;endFill=0;" parent="1" source="9279Y2dlnWFJtDddr8eM-2" target="9279Y2dlnWFJtDddr8eM-3" edge="1">
          <mxGeometry relative="1" as="geometry" />
        </mxCell>
        <mxCell id="9279Y2dlnWFJtDddr8eM-2" value="Empresa" style="rounded=0;whiteSpace=wrap;html=1;fillColor=#ffe6cc;strokeColor=#d79b00;" parent="1" vertex="1">
          <mxGeometry x="400" y="410" width="120" height="80" as="geometry" />
        </mxCell>
        <mxCell id="9279Y2dlnWFJtDddr8eM-6" style="edgeStyle=orthogonalEdgeStyle;rounded=0;orthogonalLoop=1;jettySize=auto;html=1;entryX=0.5;entryY=0;entryDx=0;entryDy=0;endArrow=none;endFill=0;" parent="1" source="9279Y2dlnWFJtDddr8eM-3" target="9279Y2dlnWFJtDddr8eM-4" edge="1">
          <mxGeometry relative="1" as="geometry" />
        </mxCell>
        <mxCell id="9279Y2dlnWFJtDddr8eM-3" value="Possuí" style="rhombus;whiteSpace=wrap;html=1;fillColor=#e1d5e7;strokeColor=#9673a6;" parent="1" vertex="1">
          <mxGeometry x="400" y="530" width="120" height="80" as="geometry" />
        </mxCell>
        <mxCell id="GcBuf2Ccoyu3AMxnFYP--5" style="edgeStyle=orthogonalEdgeStyle;rounded=0;orthogonalLoop=1;jettySize=auto;html=1;entryX=0.5;entryY=0;entryDx=0;entryDy=0;endArrow=none;endFill=0;" edge="1" parent="1" source="9279Y2dlnWFJtDddr8eM-4" target="GcBuf2Ccoyu3AMxnFYP--4">
          <mxGeometry relative="1" as="geometry" />
        </mxCell>
        <mxCell id="GcBuf2Ccoyu3AMxnFYP--7" style="edgeStyle=orthogonalEdgeStyle;rounded=0;orthogonalLoop=1;jettySize=auto;html=1;entryX=0;entryY=0.5;entryDx=0;entryDy=0;endArrow=none;endFill=0;" edge="1" parent="1" target="GcBuf2Ccoyu3AMxnFYP--3">
          <mxGeometry relative="1" as="geometry">
            <mxPoint x="510" y="727.9999999999998" as="sourcePoint" />
          </mxGeometry>
        </mxCell>
        <mxCell id="GcBuf2Ccoyu3AMxnFYP--22" style="edgeStyle=orthogonalEdgeStyle;rounded=0;orthogonalLoop=1;jettySize=auto;html=1;entryX=0;entryY=0.5;entryDx=0;entryDy=0;endArrow=none;endFill=0;" edge="1" parent="1" source="9279Y2dlnWFJtDddr8eM-4" target="GcBuf2Ccoyu3AMxnFYP--21">
          <mxGeometry relative="1" as="geometry">
            <Array as="points">
              <mxPoint x="550" y="660" />
              <mxPoint x="550" y="640" />
            </Array>
          </mxGeometry>
        </mxCell>
        <mxCell id="9279Y2dlnWFJtDddr8eM-4" value="Veículos" style="rounded=0;whiteSpace=wrap;html=1;fillColor=#ffe6cc;strokeColor=#d79b00;" parent="1" vertex="1">
          <mxGeometry x="400" y="650" width="120" height="80" as="geometry" />
        </mxCell>
        <mxCell id="9279Y2dlnWFJtDddr8eM-14" style="edgeStyle=orthogonalEdgeStyle;rounded=0;orthogonalLoop=1;jettySize=auto;html=1;entryX=0.5;entryY=1;entryDx=0;entryDy=0;endArrow=none;endFill=0;" parent="1" source="9279Y2dlnWFJtDddr8eM-7" target="9279Y2dlnWFJtDddr8eM-11" edge="1">
          <mxGeometry relative="1" as="geometry" />
        </mxCell>
        <mxCell id="9279Y2dlnWFJtDddr8eM-15" style="edgeStyle=orthogonalEdgeStyle;rounded=0;orthogonalLoop=1;jettySize=auto;html=1;entryX=0.5;entryY=1;entryDx=0;entryDy=0;endArrow=none;endFill=0;" parent="1" source="9279Y2dlnWFJtDddr8eM-7" target="9279Y2dlnWFJtDddr8eM-12" edge="1">
          <mxGeometry relative="1" as="geometry" />
        </mxCell>
        <mxCell id="9279Y2dlnWFJtDddr8eM-7" value="Cliente" style="rounded=0;whiteSpace=wrap;html=1;fillColor=#ffe6cc;strokeColor=#d79b00;" parent="1" vertex="1">
          <mxGeometry x="-280" y="650" width="120" height="80" as="geometry" />
        </mxCell>
        <mxCell id="9279Y2dlnWFJtDddr8eM-9" style="edgeStyle=orthogonalEdgeStyle;rounded=0;orthogonalLoop=1;jettySize=auto;html=1;entryX=0;entryY=0.5;entryDx=0;entryDy=0;endArrow=none;endFill=0;" parent="1" target="9279Y2dlnWFJtDddr8eM-4" edge="1">
          <mxGeometry relative="1" as="geometry">
            <mxPoint x="360" y="689.9999999999998" as="sourcePoint" />
          </mxGeometry>
        </mxCell>
        <mxCell id="9279Y2dlnWFJtDddr8eM-11" value="Nome" style="ellipse;whiteSpace=wrap;html=1;fillColor=#d5e8d4;strokeColor=#82b366;" parent="1" vertex="1">
          <mxGeometry x="-320" y="563" width="80" height="40" as="geometry" />
        </mxCell>
        <mxCell id="9279Y2dlnWFJtDddr8eM-12" value="CPF" style="ellipse;whiteSpace=wrap;html=1;fillColor=#d5e8d4;strokeColor=#82b366;" parent="1" vertex="1">
          <mxGeometry x="-200" y="563" width="80" height="40" as="geometry" />
        </mxCell>
        <mxCell id="9279Y2dlnWFJtDddr8eM-22" value="1" style="text;html=1;align=center;verticalAlign=middle;resizable=0;points=[];autosize=1;strokeColor=#d6b656;fillColor=#fff2cc;" parent="1" vertex="1">
          <mxGeometry x="465" y="490" width="30" height="30" as="geometry" />
        </mxCell>
        <mxCell id="9279Y2dlnWFJtDddr8eM-23" value="n" style="text;html=1;align=center;verticalAlign=middle;resizable=0;points=[];autosize=1;strokeColor=#d6b656;fillColor=#fff2cc;" parent="1" vertex="1">
          <mxGeometry x="465" y="620" width="30" height="30" as="geometry" />
        </mxCell>
        <mxCell id="9279Y2dlnWFJtDddr8eM-28" value="1" style="text;html=1;align=center;verticalAlign=middle;resizable=0;points=[];autosize=1;strokeColor=#d6b656;fillColor=#fff2cc;" parent="1" vertex="1">
          <mxGeometry x="-160" y="651" width="30" height="30" as="geometry" />
        </mxCell>
        <mxCell id="9279Y2dlnWFJtDddr8eM-29" value="1" style="text;html=1;align=center;verticalAlign=middle;resizable=0;points=[];autosize=1;strokeColor=#d6b656;fillColor=#fff2cc;" parent="1" vertex="1">
          <mxGeometry x="370" y="658" width="30" height="30" as="geometry" />
        </mxCell>
        <mxCell id="GcBuf2Ccoyu3AMxnFYP--12" style="edgeStyle=orthogonalEdgeStyle;rounded=0;orthogonalLoop=1;jettySize=auto;html=1;entryX=0.5;entryY=0;entryDx=0;entryDy=0;endArrow=none;endFill=0;" edge="1" parent="1" source="GcBuf2Ccoyu3AMxnFYP--1" target="GcBuf2Ccoyu3AMxnFYP--10">
          <mxGeometry relative="1" as="geometry" />
        </mxCell>
        <mxCell id="GcBuf2Ccoyu3AMxnFYP--13" style="edgeStyle=orthogonalEdgeStyle;rounded=0;orthogonalLoop=1;jettySize=auto;html=1;entryX=0.5;entryY=0;entryDx=0;entryDy=0;endArrow=none;endFill=0;" edge="1" parent="1" source="GcBuf2Ccoyu3AMxnFYP--1" target="GcBuf2Ccoyu3AMxnFYP--11">
          <mxGeometry relative="1" as="geometry" />
        </mxCell>
        <mxCell id="GcBuf2Ccoyu3AMxnFYP--14" style="edgeStyle=orthogonalEdgeStyle;rounded=0;orthogonalLoop=1;jettySize=auto;html=1;entryX=0.5;entryY=0;entryDx=0;entryDy=0;endArrow=none;endFill=0;" edge="1" parent="1" source="GcBuf2Ccoyu3AMxnFYP--1" target="GcBuf2Ccoyu3AMxnFYP--9">
          <mxGeometry relative="1" as="geometry" />
        </mxCell>
        <mxCell id="GcBuf2Ccoyu3AMxnFYP--1" value="Modelo" style="rounded=0;whiteSpace=wrap;html=1;fillColor=#ffe6cc;strokeColor=#d79b00;" vertex="1" parent="1">
          <mxGeometry x="400" y="880" width="120" height="80" as="geometry" />
        </mxCell>
        <mxCell id="GcBuf2Ccoyu3AMxnFYP--18" style="edgeStyle=orthogonalEdgeStyle;rounded=0;orthogonalLoop=1;jettySize=auto;html=1;entryX=0;entryY=0.5;entryDx=0;entryDy=0;endArrow=none;endFill=0;" edge="1" parent="1" source="GcBuf2Ccoyu3AMxnFYP--2" target="GcBuf2Ccoyu3AMxnFYP--15">
          <mxGeometry relative="1" as="geometry" />
        </mxCell>
        <mxCell id="GcBuf2Ccoyu3AMxnFYP--19" style="edgeStyle=orthogonalEdgeStyle;rounded=0;orthogonalLoop=1;jettySize=auto;html=1;entryX=0;entryY=0.5;entryDx=0;entryDy=0;endArrow=none;endFill=0;" edge="1" parent="1" source="GcBuf2Ccoyu3AMxnFYP--2" target="GcBuf2Ccoyu3AMxnFYP--17">
          <mxGeometry relative="1" as="geometry" />
        </mxCell>
        <mxCell id="GcBuf2Ccoyu3AMxnFYP--20" style="edgeStyle=orthogonalEdgeStyle;rounded=0;orthogonalLoop=1;jettySize=auto;html=1;entryX=0;entryY=0.5;entryDx=0;entryDy=0;endArrow=none;endFill=0;" edge="1" parent="1" source="GcBuf2Ccoyu3AMxnFYP--2" target="GcBuf2Ccoyu3AMxnFYP--16">
          <mxGeometry relative="1" as="geometry" />
        </mxCell>
        <mxCell id="GcBuf2Ccoyu3AMxnFYP--2" value="Marca" style="rounded=0;whiteSpace=wrap;html=1;fillColor=#ffe6cc;strokeColor=#d79b00;" vertex="1" parent="1">
          <mxGeometry x="710" y="688" width="120" height="80" as="geometry" />
        </mxCell>
        <mxCell id="GcBuf2Ccoyu3AMxnFYP--8" style="edgeStyle=orthogonalEdgeStyle;rounded=0;orthogonalLoop=1;jettySize=auto;html=1;entryX=0;entryY=0.5;entryDx=0;entryDy=0;endArrow=none;endFill=0;" edge="1" parent="1" source="GcBuf2Ccoyu3AMxnFYP--3" target="GcBuf2Ccoyu3AMxnFYP--2">
          <mxGeometry relative="1" as="geometry" />
        </mxCell>
        <mxCell id="GcBuf2Ccoyu3AMxnFYP--3" value="Possui" style="rhombus;whiteSpace=wrap;html=1;fillColor=#e1d5e7;strokeColor=#9673a6;" vertex="1" parent="1">
          <mxGeometry x="550" y="688" width="120" height="80" as="geometry" />
        </mxCell>
        <mxCell id="GcBuf2Ccoyu3AMxnFYP--6" style="edgeStyle=orthogonalEdgeStyle;rounded=0;orthogonalLoop=1;jettySize=auto;html=1;entryX=0.5;entryY=0;entryDx=0;entryDy=0;endArrow=none;endFill=0;" edge="1" parent="1" source="GcBuf2Ccoyu3AMxnFYP--4" target="GcBuf2Ccoyu3AMxnFYP--1">
          <mxGeometry relative="1" as="geometry" />
        </mxCell>
        <mxCell id="GcBuf2Ccoyu3AMxnFYP--4" value="Possui" style="rhombus;whiteSpace=wrap;html=1;fillColor=#e1d5e7;strokeColor=#9673a6;" vertex="1" parent="1">
          <mxGeometry x="400" y="760" width="120" height="80" as="geometry" />
        </mxCell>
        <mxCell id="GcBuf2Ccoyu3AMxnFYP--9" value="Onix" style="ellipse;whiteSpace=wrap;html=1;fillColor=#d5e8d4;strokeColor=#82b366;" vertex="1" parent="1">
          <mxGeometry x="320" y="1000" width="80" height="40" as="geometry" />
        </mxCell>
        <mxCell id="GcBuf2Ccoyu3AMxnFYP--10" value="Fiesta" style="ellipse;whiteSpace=wrap;html=1;fillColor=#d5e8d4;strokeColor=#82b366;" vertex="1" parent="1">
          <mxGeometry x="420" y="1000" width="80" height="40" as="geometry" />
        </mxCell>
        <mxCell id="GcBuf2Ccoyu3AMxnFYP--11" value="Argo" style="ellipse;whiteSpace=wrap;html=1;fillColor=#d5e8d4;strokeColor=#82b366;" vertex="1" parent="1">
          <mxGeometry x="520" y="1000" width="80" height="40" as="geometry" />
        </mxCell>
        <mxCell id="GcBuf2Ccoyu3AMxnFYP--15" value="GM" style="ellipse;whiteSpace=wrap;html=1;fillColor=#d5e8d4;strokeColor=#82b366;" vertex="1" parent="1">
          <mxGeometry x="880" y="708" width="80" height="40" as="geometry" />
        </mxCell>
        <mxCell id="GcBuf2Ccoyu3AMxnFYP--16" value="Ford" style="ellipse;whiteSpace=wrap;html=1;fillColor=#d5e8d4;strokeColor=#82b366;" vertex="1" parent="1">
          <mxGeometry x="880" y="748" width="80" height="40" as="geometry" />
        </mxCell>
        <mxCell id="GcBuf2Ccoyu3AMxnFYP--17" value="Fiat" style="ellipse;whiteSpace=wrap;html=1;fillColor=#d5e8d4;strokeColor=#82b366;" vertex="1" parent="1">
          <mxGeometry x="880" y="668" width="80" height="40" as="geometry" />
        </mxCell>
        <mxCell id="GcBuf2Ccoyu3AMxnFYP--21" value="Placa" style="ellipse;whiteSpace=wrap;html=1;fillColor=#d5e8d4;strokeColor=#82b366;" vertex="1" parent="1">
          <mxGeometry x="580" y="620" width="80" height="40" as="geometry" />
        </mxCell>
        <mxCell id="GcBuf2Ccoyu3AMxnFYP--23" value="n" style="text;html=1;align=center;verticalAlign=middle;resizable=0;points=[];autosize=1;strokeColor=#d6b656;fillColor=#fff2cc;" vertex="1" parent="1">
          <mxGeometry x="520" y="690" width="30" height="30" as="geometry" />
        </mxCell>
        <mxCell id="GcBuf2Ccoyu3AMxnFYP--24" value="1" style="text;html=1;align=center;verticalAlign=middle;resizable=0;points=[];autosize=1;strokeColor=#d6b656;fillColor=#fff2cc;" vertex="1" parent="1">
          <mxGeometry x="680" y="688" width="30" height="30" as="geometry" />
        </mxCell>
        <mxCell id="GcBuf2Ccoyu3AMxnFYP--25" value="n" style="text;html=1;align=center;verticalAlign=middle;resizable=0;points=[];autosize=1;strokeColor=#d6b656;fillColor=#fff2cc;" vertex="1" parent="1">
          <mxGeometry x="465" y="730" width="30" height="30" as="geometry" />
        </mxCell>
        <mxCell id="GcBuf2Ccoyu3AMxnFYP--26" value="1" style="text;html=1;align=center;verticalAlign=middle;resizable=0;points=[];autosize=1;strokeColor=#d6b656;fillColor=#fff2cc;" vertex="1" parent="1">
          <mxGeometry x="465" y="850" width="30" height="30" as="geometry" />
        </mxCell>
        <mxCell id="GcBuf2Ccoyu3AMxnFYP--27" value="Aluguel" style="rounded=0;whiteSpace=wrap;html=1;fillColor=#ffe6cc;strokeColor=#d79b00;" vertex="1" parent="1">
          <mxGeometry x="80" y="650" width="120" height="80" as="geometry" />
        </mxCell>
        <mxCell id="GcBuf2Ccoyu3AMxnFYP--30" style="edgeStyle=orthogonalEdgeStyle;rounded=0;orthogonalLoop=1;jettySize=auto;html=1;endArrow=none;endFill=0;" edge="1" parent="1" source="GcBuf2Ccoyu3AMxnFYP--28" target="GcBuf2Ccoyu3AMxnFYP--27">
          <mxGeometry relative="1" as="geometry" />
        </mxCell>
        <mxCell id="GcBuf2Ccoyu3AMxnFYP--28" value="Possuí" style="rhombus;whiteSpace=wrap;html=1;fillColor=#e1d5e7;strokeColor=#9673a6;" vertex="1" parent="1">
          <mxGeometry x="240" y="650" width="120" height="80" as="geometry" />
        </mxCell>
        <mxCell id="GcBuf2Ccoyu3AMxnFYP--32" style="edgeStyle=orthogonalEdgeStyle;rounded=0;orthogonalLoop=1;jettySize=auto;html=1;entryX=0;entryY=0.5;entryDx=0;entryDy=0;endArrow=none;endFill=0;" edge="1" parent="1" source="GcBuf2Ccoyu3AMxnFYP--31" target="GcBuf2Ccoyu3AMxnFYP--27">
          <mxGeometry relative="1" as="geometry" />
        </mxCell>
        <mxCell id="GcBuf2Ccoyu3AMxnFYP--33" style="edgeStyle=orthogonalEdgeStyle;rounded=0;orthogonalLoop=1;jettySize=auto;html=1;entryX=1;entryY=0.5;entryDx=0;entryDy=0;endArrow=none;endFill=0;" edge="1" parent="1" source="GcBuf2Ccoyu3AMxnFYP--31" target="9279Y2dlnWFJtDddr8eM-7">
          <mxGeometry relative="1" as="geometry" />
        </mxCell>
        <mxCell id="GcBuf2Ccoyu3AMxnFYP--31" value="Possuí" style="rhombus;whiteSpace=wrap;html=1;fillColor=#e1d5e7;strokeColor=#9673a6;" vertex="1" parent="1">
          <mxGeometry x="-80" y="650" width="120" height="80" as="geometry" />
        </mxCell>
        <mxCell id="GcBuf2Ccoyu3AMxnFYP--34" value="n" style="text;html=1;align=center;verticalAlign=middle;resizable=0;points=[];autosize=1;strokeColor=#d6b656;fillColor=#fff2cc;" vertex="1" parent="1">
          <mxGeometry x="200" y="658" width="30" height="30" as="geometry" />
        </mxCell>
        <mxCell id="GcBuf2Ccoyu3AMxnFYP--35" value="n" style="text;html=1;align=center;verticalAlign=middle;resizable=0;points=[];autosize=1;strokeColor=#d6b656;fillColor=#fff2cc;" vertex="1" parent="1">
          <mxGeometry x="50" y="658" width="30" height="30" as="geometry" />
        </mxCell>
      </root>
    </mxGraphModel>
  </diagram>
  <diagram id="7YqHkjPcy5GHn5s1zZcq" name="Exercício 1.3">
    <mxGraphModel dx="1235" dy="646" grid="1" gridSize="10" guides="1" tooltips="1" connect="1" arrows="1" fold="1" page="1" pageScale="1" pageWidth="827" pageHeight="1169" math="0" shadow="0">
      <root>
        <mxCell id="0" />
        <mxCell id="1" parent="0" />
        <mxCell id="nDyF00STvOVcWpDJN21p-1" value="Uma clínica veterinária deseja cadastrar os pets que são atendidos em seu local.&#xa;&#xa;&#xa;- a clínica contém um endereço;&#xa;- os pets deverão ter nome, data de nascimento, tipo de pet;&#xa;- os pets deverão ter raça;&#xa;- os pets deverão ter donos;&#xa;- a clínica deseja cadastrar seus veterinários e todo atendimento de pet será feito por um veterinário;&#xa;&#xa;&#xa;DML&#xa;&#xa;&#xa;- cada atendimento deve registrar qual veterinário atendeu, qual pet foi atendido, descrição da consulta e data da consulta&#xa;&#xa;&#xa;DQL&#xa;&#xa;&#xa;- listar todos os veterinários (nome e CRMV) de uma clínica (razão social)&#xa;- listar todas as raças que começam com a letra S&#xa;- listar todos os tipos de pet que terminam com a letra O&#xa;- listar todos os pets mostrando os nomes dos seus donos&#xa;- listar todos os atendimentos mostrando o nome do veterinário que atendeu, o nome, a raça e o tipo do pet que foi atendido, o nome do dono do pet e o nome da clínica onde o pet foi atendido" style="text;whiteSpace=wrap;" parent="1" vertex="1">
          <mxGeometry x="35" y="150" width="560" height="410" as="geometry" />
        </mxCell>
        <mxCell id="oYOmfbtj0ZOXrMESxxdo-28" style="edgeStyle=orthogonalEdgeStyle;rounded=0;orthogonalLoop=1;jettySize=auto;html=1;entryX=0.5;entryY=0;entryDx=0;entryDy=0;endArrow=none;endFill=0;" edge="1" parent="1" source="nDyF00STvOVcWpDJN21p-3" target="oYOmfbtj0ZOXrMESxxdo-27">
          <mxGeometry relative="1" as="geometry" />
        </mxCell>
        <mxCell id="nDyF00STvOVcWpDJN21p-3" value="Clínica" style="rounded=0;whiteSpace=wrap;html=1;fillColor=#ffe6cc;strokeColor=#d79b00;" parent="1" vertex="1">
          <mxGeometry x="674" y="490" width="120" height="80" as="geometry" />
        </mxCell>
        <mxCell id="nDyF00STvOVcWpDJN21p-12" style="edgeStyle=orthogonalEdgeStyle;rounded=0;orthogonalLoop=1;jettySize=auto;html=1;entryX=0.5;entryY=1;entryDx=0;entryDy=0;endArrow=none;endFill=0;" parent="1" source="nDyF00STvOVcWpDJN21p-6" edge="1">
          <mxGeometry relative="1" as="geometry">
            <mxPoint x="380" y="520" as="targetPoint" />
          </mxGeometry>
        </mxCell>
        <mxCell id="nDyF00STvOVcWpDJN21p-13" style="edgeStyle=orthogonalEdgeStyle;rounded=0;orthogonalLoop=1;jettySize=auto;html=1;entryX=0.5;entryY=1;entryDx=0;entryDy=0;endArrow=none;endFill=0;" parent="1" source="nDyF00STvOVcWpDJN21p-6" edge="1">
          <mxGeometry relative="1" as="geometry">
            <mxPoint x="460" y="520" as="targetPoint" />
          </mxGeometry>
        </mxCell>
        <mxCell id="oYOmfbtj0ZOXrMESxxdo-13" style="edgeStyle=orthogonalEdgeStyle;rounded=0;orthogonalLoop=1;jettySize=auto;html=1;entryX=1;entryY=0.5;entryDx=0;entryDy=0;endArrow=none;endFill=0;" edge="1" parent="1" source="mbJqJyFQEeLSH4pm87oj-2" target="oYOmfbtj0ZOXrMESxxdo-11">
          <mxGeometry relative="1" as="geometry">
            <Array as="points">
              <mxPoint x="340" y="1030" />
              <mxPoint x="340" y="1090" />
            </Array>
          </mxGeometry>
        </mxCell>
        <mxCell id="oYOmfbtj0ZOXrMESxxdo-19" style="edgeStyle=orthogonalEdgeStyle;rounded=0;orthogonalLoop=1;jettySize=auto;html=1;entryX=0.5;entryY=0;entryDx=0;entryDy=0;endArrow=none;endFill=0;" edge="1" parent="1" target="oYOmfbtj0ZOXrMESxxdo-18">
          <mxGeometry relative="1" as="geometry">
            <mxPoint x="374.0000000000002" y="1050" as="sourcePoint" />
          </mxGeometry>
        </mxCell>
        <mxCell id="oYOmfbtj0ZOXrMESxxdo-23" style="edgeStyle=orthogonalEdgeStyle;rounded=0;orthogonalLoop=1;jettySize=auto;html=1;entryX=0.5;entryY=1;entryDx=0;entryDy=0;endArrow=none;endFill=0;" edge="1" parent="1" source="mbJqJyFQEeLSH4pm87oj-2" target="oYOmfbtj0ZOXrMESxxdo-7">
          <mxGeometry relative="1" as="geometry" />
        </mxCell>
        <mxCell id="oYOmfbtj0ZOXrMESxxdo-24" style="edgeStyle=orthogonalEdgeStyle;rounded=0;orthogonalLoop=1;jettySize=auto;html=1;entryX=0.5;entryY=1;entryDx=0;entryDy=0;endArrow=none;endFill=0;" edge="1" parent="1" source="mbJqJyFQEeLSH4pm87oj-2" target="oYOmfbtj0ZOXrMESxxdo-6">
          <mxGeometry relative="1" as="geometry" />
        </mxCell>
        <mxCell id="oYOmfbtj0ZOXrMESxxdo-38" style="edgeStyle=orthogonalEdgeStyle;rounded=0;orthogonalLoop=1;jettySize=auto;html=1;entryX=1;entryY=0.5;entryDx=0;entryDy=0;endArrow=none;endFill=0;" edge="1" parent="1" source="mbJqJyFQEeLSH4pm87oj-2" target="oYOmfbtj0ZOXrMESxxdo-10">
          <mxGeometry relative="1" as="geometry" />
        </mxCell>
        <mxCell id="mbJqJyFQEeLSH4pm87oj-2" value="Pets" style="rounded=0;whiteSpace=wrap;html=1;fillColor=#ffe6cc;strokeColor=#d79b00;" parent="1" vertex="1">
          <mxGeometry x="354" y="970" width="120" height="80" as="geometry" />
        </mxCell>
        <mxCell id="oYOmfbtj0ZOXrMESxxdo-5" style="edgeStyle=orthogonalEdgeStyle;rounded=0;orthogonalLoop=1;jettySize=auto;html=1;entryX=0.5;entryY=0;entryDx=0;entryDy=0;endArrow=none;endFill=0;" edge="1" parent="1" source="oYOmfbtj0ZOXrMESxxdo-4" target="nDyF00STvOVcWpDJN21p-3">
          <mxGeometry relative="1" as="geometry" />
        </mxCell>
        <mxCell id="oYOmfbtj0ZOXrMESxxdo-4" value="Endereço" style="ellipse;whiteSpace=wrap;html=1;fillColor=#d5e8d4;strokeColor=#82b366;" vertex="1" parent="1">
          <mxGeometry x="694" y="410" width="80" height="40" as="geometry" />
        </mxCell>
        <mxCell id="oYOmfbtj0ZOXrMESxxdo-6" value="Nome" style="ellipse;whiteSpace=wrap;html=1;fillColor=#d5e8d4;strokeColor=#82b366;" vertex="1" parent="1">
          <mxGeometry x="414" y="890" width="80" height="40" as="geometry" />
        </mxCell>
        <mxCell id="oYOmfbtj0ZOXrMESxxdo-7" value="Data Nascimento" style="ellipse;whiteSpace=wrap;html=1;fillColor=#d5e8d4;strokeColor=#82b366;" vertex="1" parent="1">
          <mxGeometry x="324" y="890" width="80" height="40" as="geometry" />
        </mxCell>
        <mxCell id="oYOmfbtj0ZOXrMESxxdo-8" value="Tipo Pet" style="rounded=0;whiteSpace=wrap;html=1;fillColor=#ffe6cc;strokeColor=#d79b00;" vertex="1" parent="1">
          <mxGeometry x="34" y="930" width="120" height="80" as="geometry" />
        </mxCell>
        <mxCell id="oYOmfbtj0ZOXrMESxxdo-9" value="Raça" style="rounded=0;whiteSpace=wrap;html=1;fillColor=#ffe6cc;strokeColor=#d79b00;" vertex="1" parent="1">
          <mxGeometry x="34" y="1050" width="120" height="80" as="geometry" />
        </mxCell>
        <mxCell id="oYOmfbtj0ZOXrMESxxdo-14" style="edgeStyle=orthogonalEdgeStyle;rounded=0;orthogonalLoop=1;jettySize=auto;html=1;entryX=1;entryY=0.5;entryDx=0;entryDy=0;endArrow=none;endFill=0;" edge="1" parent="1" source="oYOmfbtj0ZOXrMESxxdo-10" target="oYOmfbtj0ZOXrMESxxdo-8">
          <mxGeometry relative="1" as="geometry" />
        </mxCell>
        <mxCell id="oYOmfbtj0ZOXrMESxxdo-10" value="Possui" style="rhombus;whiteSpace=wrap;html=1;fillColor=#e1d5e7;strokeColor=#9673a6;" vertex="1" parent="1">
          <mxGeometry x="194" y="930" width="120" height="80" as="geometry" />
        </mxCell>
        <mxCell id="oYOmfbtj0ZOXrMESxxdo-15" style="edgeStyle=orthogonalEdgeStyle;rounded=0;orthogonalLoop=1;jettySize=auto;html=1;entryX=1;entryY=0.5;entryDx=0;entryDy=0;endArrow=none;endFill=0;" edge="1" parent="1" source="oYOmfbtj0ZOXrMESxxdo-11" target="oYOmfbtj0ZOXrMESxxdo-9">
          <mxGeometry relative="1" as="geometry" />
        </mxCell>
        <mxCell id="oYOmfbtj0ZOXrMESxxdo-11" value="Possui" style="rhombus;whiteSpace=wrap;html=1;fillColor=#e1d5e7;strokeColor=#9673a6;" vertex="1" parent="1">
          <mxGeometry x="194" y="1050" width="120" height="80" as="geometry" />
        </mxCell>
        <mxCell id="oYOmfbtj0ZOXrMESxxdo-21" style="edgeStyle=orthogonalEdgeStyle;rounded=0;orthogonalLoop=1;jettySize=auto;html=1;entryX=0.5;entryY=0;entryDx=0;entryDy=0;endArrow=none;endFill=0;" edge="1" parent="1" source="oYOmfbtj0ZOXrMESxxdo-18" target="oYOmfbtj0ZOXrMESxxdo-20">
          <mxGeometry relative="1" as="geometry" />
        </mxCell>
        <mxCell id="oYOmfbtj0ZOXrMESxxdo-18" value="Possui" style="rhombus;whiteSpace=wrap;html=1;fillColor=#e1d5e7;strokeColor=#9673a6;" vertex="1" parent="1">
          <mxGeometry x="314" y="1090" width="120" height="80" as="geometry" />
        </mxCell>
        <mxCell id="oYOmfbtj0ZOXrMESxxdo-20" value="Dono" style="rounded=0;whiteSpace=wrap;html=1;fillColor=#ffe6cc;strokeColor=#d79b00;" vertex="1" parent="1">
          <mxGeometry x="314" y="1210" width="120" height="80" as="geometry" />
        </mxCell>
        <mxCell id="oYOmfbtj0ZOXrMESxxdo-29" style="edgeStyle=orthogonalEdgeStyle;rounded=0;orthogonalLoop=1;jettySize=auto;html=1;entryX=0.5;entryY=0;entryDx=0;entryDy=0;endArrow=none;endFill=0;" edge="1" parent="1" source="oYOmfbtj0ZOXrMESxxdo-27">
          <mxGeometry relative="1" as="geometry">
            <mxPoint x="734" y="730" as="targetPoint" />
          </mxGeometry>
        </mxCell>
        <mxCell id="oYOmfbtj0ZOXrMESxxdo-27" value="Cadastrar" style="rhombus;whiteSpace=wrap;html=1;fillColor=#e1d5e7;strokeColor=#9673a6;" vertex="1" parent="1">
          <mxGeometry x="674" y="610" width="120" height="80" as="geometry" />
        </mxCell>
        <mxCell id="oYOmfbtj0ZOXrMESxxdo-33" style="edgeStyle=orthogonalEdgeStyle;rounded=0;orthogonalLoop=1;jettySize=auto;html=1;entryX=0.5;entryY=0;entryDx=0;entryDy=0;endArrow=none;endFill=0;" edge="1" parent="1" source="oYOmfbtj0ZOXrMESxxdo-30" target="oYOmfbtj0ZOXrMESxxdo-31">
          <mxGeometry relative="1" as="geometry" />
        </mxCell>
        <mxCell id="oYOmfbtj0ZOXrMESxxdo-30" value="Veterinário" style="rounded=0;whiteSpace=wrap;html=1;fillColor=#ffe6cc;strokeColor=#d79b00;" vertex="1" parent="1">
          <mxGeometry x="674" y="730" width="120" height="80" as="geometry" />
        </mxCell>
        <mxCell id="oYOmfbtj0ZOXrMESxxdo-34" style="edgeStyle=orthogonalEdgeStyle;rounded=0;orthogonalLoop=1;jettySize=auto;html=1;entryX=0.5;entryY=0;entryDx=0;entryDy=0;endArrow=none;endFill=0;" edge="1" parent="1" source="oYOmfbtj0ZOXrMESxxdo-31" target="oYOmfbtj0ZOXrMESxxdo-32">
          <mxGeometry relative="1" as="geometry" />
        </mxCell>
        <mxCell id="oYOmfbtj0ZOXrMESxxdo-31" value="Possui" style="rhombus;whiteSpace=wrap;html=1;fillColor=#e1d5e7;strokeColor=#9673a6;" vertex="1" parent="1">
          <mxGeometry x="674" y="850" width="120" height="80" as="geometry" />
        </mxCell>
        <mxCell id="oYOmfbtj0ZOXrMESxxdo-32" value="Atendimento" style="rounded=0;whiteSpace=wrap;html=1;fillColor=#ffe6cc;strokeColor=#d79b00;" vertex="1" parent="1">
          <mxGeometry x="674" y="970" width="120" height="80" as="geometry" />
        </mxCell>
        <mxCell id="oYOmfbtj0ZOXrMESxxdo-36" style="edgeStyle=orthogonalEdgeStyle;rounded=0;orthogonalLoop=1;jettySize=auto;html=1;entryX=0;entryY=0.5;entryDx=0;entryDy=0;endArrow=none;endFill=0;" edge="1" parent="1" source="oYOmfbtj0ZOXrMESxxdo-35" target="oYOmfbtj0ZOXrMESxxdo-32">
          <mxGeometry relative="1" as="geometry" />
        </mxCell>
        <mxCell id="oYOmfbtj0ZOXrMESxxdo-37" style="edgeStyle=orthogonalEdgeStyle;rounded=0;orthogonalLoop=1;jettySize=auto;html=1;entryX=1;entryY=0.5;entryDx=0;entryDy=0;endArrow=none;endFill=0;" edge="1" parent="1" source="oYOmfbtj0ZOXrMESxxdo-35" target="mbJqJyFQEeLSH4pm87oj-2">
          <mxGeometry relative="1" as="geometry" />
        </mxCell>
        <mxCell id="oYOmfbtj0ZOXrMESxxdo-35" value="Possui" style="rhombus;whiteSpace=wrap;html=1;fillColor=#e1d5e7;strokeColor=#9673a6;" vertex="1" parent="1">
          <mxGeometry x="514" y="970" width="120" height="80" as="geometry" />
        </mxCell>
        <mxCell id="oYOmfbtj0ZOXrMESxxdo-39" value="1" style="text;html=1;align=center;verticalAlign=middle;resizable=0;points=[];autosize=1;strokeColor=none;fillColor=none;" vertex="1" parent="1">
          <mxGeometry x="735" y="570" width="30" height="30" as="geometry" />
        </mxCell>
        <mxCell id="oYOmfbtj0ZOXrMESxxdo-40" value="n" style="text;html=1;align=center;verticalAlign=middle;resizable=0;points=[];autosize=1;strokeColor=none;fillColor=none;" vertex="1" parent="1">
          <mxGeometry x="735" y="700" width="30" height="30" as="geometry" />
        </mxCell>
        <mxCell id="oYOmfbtj0ZOXrMESxxdo-41" value="1" style="text;html=1;align=center;verticalAlign=middle;resizable=0;points=[];autosize=1;strokeColor=none;fillColor=none;" vertex="1" parent="1">
          <mxGeometry x="735" y="810" width="30" height="30" as="geometry" />
        </mxCell>
        <mxCell id="oYOmfbtj0ZOXrMESxxdo-42" value="n" style="text;html=1;align=center;verticalAlign=middle;resizable=0;points=[];autosize=1;strokeColor=none;fillColor=none;" vertex="1" parent="1">
          <mxGeometry x="735" y="940" width="30" height="30" as="geometry" />
        </mxCell>
        <mxCell id="oYOmfbtj0ZOXrMESxxdo-43" value="1" style="text;html=1;align=center;verticalAlign=middle;resizable=0;points=[];autosize=1;strokeColor=none;fillColor=none;" vertex="1" parent="1">
          <mxGeometry x="474" y="980" width="30" height="30" as="geometry" />
        </mxCell>
        <mxCell id="oYOmfbtj0ZOXrMESxxdo-44" value="1" style="text;html=1;align=center;verticalAlign=middle;resizable=0;points=[];autosize=1;strokeColor=none;fillColor=none;" vertex="1" parent="1">
          <mxGeometry x="374" y="1180" width="30" height="30" as="geometry" />
        </mxCell>
        <mxCell id="oYOmfbtj0ZOXrMESxxdo-45" value="n" style="text;html=1;align=center;verticalAlign=middle;resizable=0;points=[];autosize=1;strokeColor=none;fillColor=none;" vertex="1" parent="1">
          <mxGeometry x="374" y="1050" width="30" height="30" as="geometry" />
        </mxCell>
        <mxCell id="oYOmfbtj0ZOXrMESxxdo-46" value="1" style="text;html=1;align=center;verticalAlign=middle;resizable=0;points=[];autosize=1;strokeColor=none;fillColor=none;" vertex="1" parent="1">
          <mxGeometry x="154" y="1060" width="30" height="30" as="geometry" />
        </mxCell>
        <mxCell id="oYOmfbtj0ZOXrMESxxdo-47" value="n" style="text;html=1;align=center;verticalAlign=middle;resizable=0;points=[];autosize=1;strokeColor=none;fillColor=none;" vertex="1" parent="1">
          <mxGeometry x="314" y="1030" width="30" height="30" as="geometry" />
        </mxCell>
        <mxCell id="oYOmfbtj0ZOXrMESxxdo-48" value="n" style="text;html=1;align=center;verticalAlign=middle;resizable=0;points=[];autosize=1;strokeColor=none;fillColor=none;" vertex="1" parent="1">
          <mxGeometry x="300" y="980" width="30" height="30" as="geometry" />
        </mxCell>
        <mxCell id="oYOmfbtj0ZOXrMESxxdo-49" value="1" style="text;html=1;align=center;verticalAlign=middle;resizable=0;points=[];autosize=1;strokeColor=none;fillColor=none;" vertex="1" parent="1">
          <mxGeometry x="154" y="970" width="30" height="30" as="geometry" />
        </mxCell>
        <mxCell id="oYOmfbtj0ZOXrMESxxdo-50" value="n" style="text;html=1;align=center;verticalAlign=middle;resizable=0;points=[];autosize=1;strokeColor=none;fillColor=none;" vertex="1" parent="1">
          <mxGeometry x="644" y="980" width="30" height="30" as="geometry" />
        </mxCell>
      </root>
    </mxGraphModel>
  </diagram>
  <diagram id="M0HIWCEhDp50MkYbU6tF" name="Exercício 1.4">
    <mxGraphModel dx="1909" dy="998" grid="1" gridSize="10" guides="1" tooltips="1" connect="1" arrows="1" fold="1" page="1" pageScale="1" pageWidth="827" pageHeight="1169" math="0" shadow="0">
      <root>
        <mxCell id="0" />
        <mxCell id="1" parent="0" />
        <mxCell id="StGy9E3byh9RQnMkr26h-1" value="A Optus é uma empresa no ramo musical que deseja realizar o gerenciamento dos lançamentos de novos cds de seus artistas. Cada álbum lançado poderá conter mais de um estilo vinculado (ex.: Indie e Folk).&#xa;É importante que você crie também uma estratégia para que os usuários possuam acesso à plataforma.&#xa;Os usuários deverão conter nome, email, senha e o tipo de permissão (eles podem ser do tipo administrador ou comum).&#xa;&#xa;&#xa;Observações:&#xa;Os Artistas deverão possuir somente nome.&#xa;Estilos: nome.&#xa;Albuns: titulo, data de lançamento, localizacao, quantidade de minutos, se o álbum está ativo para visualização, a quem pertence (somente um artista por álbum) e quais os estilos vinculados.&#xa;&#xa;&#xa;DQL&#xa;&#xa;&#xa;- listar todos os usuários administradores, sem exibir suas senhas&#xa;- listar todos os álbuns lançados após o um determinado ano de lançamento&#xa;- listar os dados de um usuário através do e-mail e senha&#xa;- listar todos os álbuns ativos, mostrando o nome do artista e os estilos do álbum" style="text;whiteSpace=wrap;" parent="1" vertex="1">
          <mxGeometry x="40" y="80" width="560" height="350" as="geometry" />
        </mxCell>
        <mxCell id="9tk-vpFBu1JvdXBwyC9S-1" value="Optus (Empresa)" style="rounded=0;whiteSpace=wrap;html=1;" vertex="1" parent="1">
          <mxGeometry x="360" y="520" width="120" height="80" as="geometry" />
        </mxCell>
        <mxCell id="9tk-vpFBu1JvdXBwyC9S-61" value="" style="rhombus;whiteSpace=wrap;html=1;" vertex="1" parent="1">
          <mxGeometry x="360" y="640" width="120" height="80" as="geometry" />
        </mxCell>
        <mxCell id="9tk-vpFBu1JvdXBwyC9S-62" value="Usuário" style="rounded=0;whiteSpace=wrap;html=1;" vertex="1" parent="1">
          <mxGeometry x="360" y="760" width="120" height="80" as="geometry" />
        </mxCell>
        <mxCell id="9tk-vpFBu1JvdXBwyC9S-66" value="" style="rhombus;whiteSpace=wrap;html=1;" vertex="1" parent="1">
          <mxGeometry x="200" y="760" width="120" height="80" as="geometry" />
        </mxCell>
        <mxCell id="9tk-vpFBu1JvdXBwyC9S-67" value="" style="rhombus;whiteSpace=wrap;html=1;" vertex="1" parent="1">
          <mxGeometry x="520" y="760" width="120" height="80" as="geometry" />
        </mxCell>
        <mxCell id="9tk-vpFBu1JvdXBwyC9S-68" value="Administrador" style="rounded=0;whiteSpace=wrap;html=1;" vertex="1" parent="1">
          <mxGeometry x="680" y="760" width="120" height="80" as="geometry" />
        </mxCell>
        <mxCell id="9tk-vpFBu1JvdXBwyC9S-69" value="Comum" style="rounded=0;whiteSpace=wrap;html=1;" vertex="1" parent="1">
          <mxGeometry x="40" y="760" width="120" height="80" as="geometry" />
        </mxCell>
      </root>
    </mxGraphModel>
  </diagram>
  <diagram name="Exercício 1.5" id="lXHYwLWOI9fKfzqLs1i-">
    <mxGraphModel dx="1050" dy="549" grid="1" gridSize="10" guides="1" tooltips="1" connect="1" arrows="1" fold="1" page="1" pageScale="1" pageWidth="827" pageHeight="1169" math="0" shadow="0">
      <root>
        <mxCell id="0" />
        <mxCell id="1" parent="0" />
        <mxCell id="fBwZSImYeLnmvsfCZoKc-1" value="E-Commerce - SenaiShop&#xa;&#xa;&#xa;Uma Loja possui várias categorias&#xa;Uma categoria possui subcategorias&#xa;Um produto possui uma subcategoria&#xa;Um cliente efetua um pedido&#xa;Um pedido pode ter 1 ou vários produtos&#xa;&#xa;&#xa;DQL&#xa;&#xa;&#xa;- listar todos os pedidos de um cliente (nome), mostrando quais produtos foram solicitados (titulo) neste pedido e de qual subcategoria (nome) e categoria (nome) pertencem" style="text;whiteSpace=wrap;" parent="1" vertex="1">
          <mxGeometry x="10" width="560" height="240" as="geometry" />
        </mxCell>
        <mxCell id="fBwZSImYeLnmvsfCZoKc-15" style="edgeStyle=orthogonalEdgeStyle;rounded=0;orthogonalLoop=1;jettySize=auto;html=1;entryX=0.5;entryY=0;entryDx=0;entryDy=0;endArrow=none;endFill=0;" parent="1" source="fBwZSImYeLnmvsfCZoKc-3" target="fBwZSImYeLnmvsfCZoKc-4" edge="1">
          <mxGeometry relative="1" as="geometry" />
        </mxCell>
        <mxCell id="fBwZSImYeLnmvsfCZoKc-25" style="edgeStyle=orthogonalEdgeStyle;rounded=0;orthogonalLoop=1;jettySize=auto;html=1;entryX=1;entryY=0.5;entryDx=0;entryDy=0;endArrow=none;endFill=0;" parent="1" source="fBwZSImYeLnmvsfCZoKc-3" target="fBwZSImYeLnmvsfCZoKc-11" edge="1">
          <mxGeometry relative="1" as="geometry" />
        </mxCell>
        <mxCell id="fBwZSImYeLnmvsfCZoKc-3" value="Loja" style="rounded=0;whiteSpace=wrap;html=1;fillColor=#ffe6cc;strokeColor=#d79b00;" parent="1" vertex="1">
          <mxGeometry x="360" y="280" width="120" height="80" as="geometry" />
        </mxCell>
        <mxCell id="fBwZSImYeLnmvsfCZoKc-16" style="edgeStyle=orthogonalEdgeStyle;rounded=0;orthogonalLoop=1;jettySize=auto;html=1;entryX=0.5;entryY=0;entryDx=0;entryDy=0;endArrow=none;endFill=0;" parent="1" source="fBwZSImYeLnmvsfCZoKc-4" target="fBwZSImYeLnmvsfCZoKc-5" edge="1">
          <mxGeometry relative="1" as="geometry" />
        </mxCell>
        <mxCell id="fBwZSImYeLnmvsfCZoKc-4" value="Possuí" style="rhombus;whiteSpace=wrap;html=1;fillColor=#e1d5e7;strokeColor=#9673a6;" parent="1" vertex="1">
          <mxGeometry x="360" y="400" width="120" height="80" as="geometry" />
        </mxCell>
        <mxCell id="fBwZSImYeLnmvsfCZoKc-17" style="edgeStyle=orthogonalEdgeStyle;rounded=0;orthogonalLoop=1;jettySize=auto;html=1;entryX=0.5;entryY=0;entryDx=0;entryDy=0;endArrow=none;endFill=0;" parent="1" source="fBwZSImYeLnmvsfCZoKc-5" target="fBwZSImYeLnmvsfCZoKc-6" edge="1">
          <mxGeometry relative="1" as="geometry" />
        </mxCell>
        <mxCell id="fBwZSImYeLnmvsfCZoKc-5" value="Categorias" style="rounded=0;whiteSpace=wrap;html=1;fillColor=#ffe6cc;strokeColor=#d79b00;" parent="1" vertex="1">
          <mxGeometry x="360" y="520" width="120" height="80" as="geometry" />
        </mxCell>
        <mxCell id="fBwZSImYeLnmvsfCZoKc-18" style="edgeStyle=orthogonalEdgeStyle;rounded=0;orthogonalLoop=1;jettySize=auto;html=1;entryX=0.5;entryY=0;entryDx=0;entryDy=0;endArrow=none;endFill=0;" parent="1" source="fBwZSImYeLnmvsfCZoKc-6" target="fBwZSImYeLnmvsfCZoKc-7" edge="1">
          <mxGeometry relative="1" as="geometry" />
        </mxCell>
        <mxCell id="fBwZSImYeLnmvsfCZoKc-6" value="Possuí" style="rhombus;whiteSpace=wrap;html=1;fillColor=#e1d5e7;strokeColor=#9673a6;" parent="1" vertex="1">
          <mxGeometry x="360" y="640" width="120" height="80" as="geometry" />
        </mxCell>
        <mxCell id="fBwZSImYeLnmvsfCZoKc-19" style="edgeStyle=orthogonalEdgeStyle;rounded=0;orthogonalLoop=1;jettySize=auto;html=1;entryX=1;entryY=0.5;entryDx=0;entryDy=0;endArrow=none;endFill=0;" parent="1" source="fBwZSImYeLnmvsfCZoKc-7" target="fBwZSImYeLnmvsfCZoKc-8" edge="1">
          <mxGeometry relative="1" as="geometry" />
        </mxCell>
        <mxCell id="fBwZSImYeLnmvsfCZoKc-7" value="Subcategorias" style="rounded=0;whiteSpace=wrap;html=1;fillColor=#ffe6cc;strokeColor=#d79b00;" parent="1" vertex="1">
          <mxGeometry x="360" y="760" width="120" height="80" as="geometry" />
        </mxCell>
        <mxCell id="fBwZSImYeLnmvsfCZoKc-20" style="edgeStyle=orthogonalEdgeStyle;rounded=0;orthogonalLoop=1;jettySize=auto;html=1;entryX=1;entryY=0.5;entryDx=0;entryDy=0;endArrow=none;endFill=0;" parent="1" source="fBwZSImYeLnmvsfCZoKc-8" target="fBwZSImYeLnmvsfCZoKc-9" edge="1">
          <mxGeometry relative="1" as="geometry" />
        </mxCell>
        <mxCell id="fBwZSImYeLnmvsfCZoKc-8" value="Possuí" style="rhombus;whiteSpace=wrap;html=1;fillColor=#e1d5e7;strokeColor=#9673a6;" parent="1" vertex="1">
          <mxGeometry x="200" y="760" width="120" height="80" as="geometry" />
        </mxCell>
        <mxCell id="fBwZSImYeLnmvsfCZoKc-21" style="edgeStyle=orthogonalEdgeStyle;rounded=0;orthogonalLoop=1;jettySize=auto;html=1;entryX=0.5;entryY=1;entryDx=0;entryDy=0;endArrow=none;endFill=0;" parent="1" source="fBwZSImYeLnmvsfCZoKc-9" target="fBwZSImYeLnmvsfCZoKc-14" edge="1">
          <mxGeometry relative="1" as="geometry" />
        </mxCell>
        <mxCell id="fBwZSImYeLnmvsfCZoKc-9" value="Produto" style="rounded=0;whiteSpace=wrap;html=1;fillColor=#ffe6cc;strokeColor=#d79b00;" parent="1" vertex="1">
          <mxGeometry x="40" y="760" width="120" height="80" as="geometry" />
        </mxCell>
        <mxCell id="fBwZSImYeLnmvsfCZoKc-10" value="Cliente" style="rounded=0;whiteSpace=wrap;html=1;fillColor=#ffe6cc;strokeColor=#d79b00;" parent="1" vertex="1">
          <mxGeometry x="40" y="280" width="120" height="80" as="geometry" />
        </mxCell>
        <mxCell id="fBwZSImYeLnmvsfCZoKc-26" style="edgeStyle=orthogonalEdgeStyle;rounded=0;orthogonalLoop=1;jettySize=auto;html=1;entryX=1;entryY=0.5;entryDx=0;entryDy=0;endArrow=none;endFill=0;" parent="1" source="fBwZSImYeLnmvsfCZoKc-11" target="fBwZSImYeLnmvsfCZoKc-10" edge="1">
          <mxGeometry relative="1" as="geometry" />
        </mxCell>
        <mxCell id="fBwZSImYeLnmvsfCZoKc-11" value="Possuí" style="rhombus;whiteSpace=wrap;html=1;fillColor=#e1d5e7;strokeColor=#9673a6;" parent="1" vertex="1">
          <mxGeometry x="200" y="280" width="120" height="80" as="geometry" />
        </mxCell>
        <mxCell id="fBwZSImYeLnmvsfCZoKc-24" style="edgeStyle=orthogonalEdgeStyle;rounded=0;orthogonalLoop=1;jettySize=auto;html=1;entryX=0.5;entryY=1;entryDx=0;entryDy=0;endArrow=none;endFill=0;" parent="1" source="fBwZSImYeLnmvsfCZoKc-12" target="fBwZSImYeLnmvsfCZoKc-10" edge="1">
          <mxGeometry relative="1" as="geometry" />
        </mxCell>
        <mxCell id="fBwZSImYeLnmvsfCZoKc-12" value="Efetua" style="rhombus;whiteSpace=wrap;html=1;fillColor=#e1d5e7;strokeColor=#9673a6;" parent="1" vertex="1">
          <mxGeometry x="40" y="400" width="120" height="80" as="geometry" />
        </mxCell>
        <mxCell id="fBwZSImYeLnmvsfCZoKc-23" style="edgeStyle=orthogonalEdgeStyle;rounded=0;orthogonalLoop=1;jettySize=auto;html=1;entryX=0.5;entryY=1;entryDx=0;entryDy=0;endArrow=none;endFill=0;" parent="1" source="fBwZSImYeLnmvsfCZoKc-13" target="fBwZSImYeLnmvsfCZoKc-12" edge="1">
          <mxGeometry relative="1" as="geometry" />
        </mxCell>
        <mxCell id="fBwZSImYeLnmvsfCZoKc-13" value="Pedido" style="rounded=0;whiteSpace=wrap;html=1;fillColor=#ffe6cc;strokeColor=#d79b00;" parent="1" vertex="1">
          <mxGeometry x="40" y="520" width="120" height="80" as="geometry" />
        </mxCell>
        <mxCell id="fBwZSImYeLnmvsfCZoKc-22" style="edgeStyle=orthogonalEdgeStyle;rounded=0;orthogonalLoop=1;jettySize=auto;html=1;entryX=0.5;entryY=1;entryDx=0;entryDy=0;endArrow=none;endFill=0;" parent="1" source="fBwZSImYeLnmvsfCZoKc-14" target="fBwZSImYeLnmvsfCZoKc-13" edge="1">
          <mxGeometry relative="1" as="geometry" />
        </mxCell>
        <mxCell id="fBwZSImYeLnmvsfCZoKc-14" value="Possuí" style="rhombus;whiteSpace=wrap;html=1;fillColor=#e1d5e7;strokeColor=#9673a6;" parent="1" vertex="1">
          <mxGeometry x="40" y="640" width="120" height="80" as="geometry" />
        </mxCell>
        <mxCell id="fBwZSImYeLnmvsfCZoKc-27" value="1" style="text;html=1;align=center;verticalAlign=middle;resizable=0;points=[];autosize=1;strokeColor=#d6b656;fillColor=#fff2cc;" parent="1" vertex="1">
          <mxGeometry x="330" y="288" width="30" height="30" as="geometry" />
        </mxCell>
        <mxCell id="fBwZSImYeLnmvsfCZoKc-28" value="n" style="text;html=1;align=center;verticalAlign=middle;resizable=0;points=[];autosize=1;strokeColor=#d6b656;fillColor=#fff2cc;" parent="1" vertex="1">
          <mxGeometry x="160" y="288" width="30" height="30" as="geometry" />
        </mxCell>
        <mxCell id="fBwZSImYeLnmvsfCZoKc-29" value="1" style="text;html=1;align=center;verticalAlign=middle;resizable=0;points=[];autosize=1;strokeColor=#d6b656;fillColor=#fff2cc;" parent="1" vertex="1">
          <mxGeometry x="430" y="360" width="30" height="30" as="geometry" />
        </mxCell>
        <mxCell id="fBwZSImYeLnmvsfCZoKc-30" value="n" style="text;html=1;align=center;verticalAlign=middle;resizable=0;points=[];autosize=1;strokeColor=#d6b656;fillColor=#fff2cc;" parent="1" vertex="1">
          <mxGeometry x="430" y="490" width="30" height="30" as="geometry" />
        </mxCell>
        <mxCell id="fBwZSImYeLnmvsfCZoKc-31" value="1" style="text;html=1;align=center;verticalAlign=middle;resizable=0;points=[];autosize=1;strokeColor=#d6b656;fillColor=#fff2cc;" parent="1" vertex="1">
          <mxGeometry x="430" y="730" width="30" height="30" as="geometry" />
        </mxCell>
        <mxCell id="fBwZSImYeLnmvsfCZoKc-32" value="1" style="text;html=1;align=center;verticalAlign=middle;resizable=0;points=[];autosize=1;strokeColor=#d6b656;fillColor=#fff2cc;" parent="1" vertex="1">
          <mxGeometry x="110" y="490" width="30" height="30" as="geometry" />
        </mxCell>
        <mxCell id="fBwZSImYeLnmvsfCZoKc-33" value="1" style="text;html=1;align=center;verticalAlign=middle;resizable=0;points=[];autosize=1;strokeColor=#d6b656;fillColor=#fff2cc;" parent="1" vertex="1">
          <mxGeometry x="110" y="600" width="30" height="30" as="geometry" />
        </mxCell>
        <mxCell id="fBwZSImYeLnmvsfCZoKc-34" value="n" style="text;html=1;align=center;verticalAlign=middle;resizable=0;points=[];autosize=1;strokeColor=#d6b656;fillColor=#fff2cc;" parent="1" vertex="1">
          <mxGeometry x="110" y="730" width="30" height="30" as="geometry" />
        </mxCell>
        <mxCell id="fBwZSImYeLnmvsfCZoKc-35" value="1" style="text;html=1;align=center;verticalAlign=middle;resizable=0;points=[];autosize=1;strokeColor=#d6b656;fillColor=#fff2cc;" parent="1" vertex="1">
          <mxGeometry x="330" y="810" width="30" height="30" as="geometry" />
        </mxCell>
        <mxCell id="fBwZSImYeLnmvsfCZoKc-36" value="1" style="text;html=1;align=center;verticalAlign=middle;resizable=0;points=[];autosize=1;strokeColor=#d6b656;fillColor=#fff2cc;" parent="1" vertex="1">
          <mxGeometry x="160" y="810" width="30" height="30" as="geometry" />
        </mxCell>
        <mxCell id="fBwZSImYeLnmvsfCZoKc-37" value="1" style="text;html=1;align=center;verticalAlign=middle;resizable=0;points=[];autosize=1;strokeColor=#d6b656;fillColor=#fff2cc;" parent="1" vertex="1">
          <mxGeometry x="430" y="600" width="30" height="30" as="geometry" />
        </mxCell>
        <mxCell id="fBwZSImYeLnmvsfCZoKc-38" value="1" style="text;html=1;align=center;verticalAlign=middle;resizable=0;points=[];autosize=1;strokeColor=#d6b656;fillColor=#fff2cc;" parent="1" vertex="1">
          <mxGeometry x="110" y="360" width="30" height="30" as="geometry" />
        </mxCell>
      </root>
    </mxGraphModel>
  </diagram>
  <diagram id="32q5wxXt1ZEIIstV-CGN" name="Exercício 1.6">
    <mxGraphModel dx="1615" dy="845" grid="1" gridSize="10" guides="1" tooltips="1" connect="1" arrows="1" fold="1" page="1" pageScale="1" pageWidth="827" pageHeight="1169" math="0" shadow="0">
      <root>
        <mxCell id="0" />
        <mxCell id="1" parent="0" />
        <mxCell id="csrT4HmtJeEkyyYqhmqn-1" value="A empresa MicroManu possui uma grande quantidade de clientes que leva seus equipamentos &#xa;como computadores, celulares, video games e até tvs para que seus colaboradores realizem o conserto.&#xa;E eles querem que você desenvolva a base para armazenar todos os dados de seus clientes e seus respectivos consertos.&#xa;Para isto, desenvolva a modelagem para atender a demanda acima. Levando em conta o exemplo abaixo:&#xa;O cliente A levou seu computador na MicroManu, o Erik e o Claudio realizaram a manutenção deste item.&#xa;O cliente B levou sua tv na MicroManu e o Daniel realizou a limpeza de todas as peças.&#xa;&#xa;&#xa;O cliente pode verificar seus consertos no site da MicroManu.&#xa;O colaborador pode encerrar o conserto.&#xa;&#xa;&#xa;DQL&#xa;&#xa;&#xa;- listar todos os pedidos dos clientes&#xa;- listar todos os pedidos de um determinado cliente, mostrando quais foram os colaboradores que executaram o serviço, qual foi o tipo de conserto, qual item foi consertado e o nome deste cliente" style="text;whiteSpace=wrap;" vertex="1" parent="1">
          <mxGeometry x="40" y="80" width="560" height="340" as="geometry" />
        </mxCell>
        <mxCell id="qSacn_zlDJcfNKJARnqx-13" style="edgeStyle=orthogonalEdgeStyle;rounded=0;orthogonalLoop=1;jettySize=auto;html=1;entryX=0.5;entryY=0;entryDx=0;entryDy=0;endArrow=none;endFill=0;" edge="1" parent="1" source="EFqkwMFPWXHQe7ApQVkd-1" target="qSacn_zlDJcfNKJARnqx-1">
          <mxGeometry relative="1" as="geometry" />
        </mxCell>
        <mxCell id="EFqkwMFPWXHQe7ApQVkd-1" value="MicroManu (Empresa)" style="rounded=0;whiteSpace=wrap;html=1;fillColor=#ffe6cc;strokeColor=#d79b00;" vertex="1" parent="1">
          <mxGeometry x="480" y="480" width="120" height="80" as="geometry" />
        </mxCell>
        <mxCell id="qSacn_zlDJcfNKJARnqx-12" style="edgeStyle=orthogonalEdgeStyle;rounded=0;orthogonalLoop=1;jettySize=auto;html=1;entryX=0.5;entryY=0;entryDx=0;entryDy=0;endArrow=none;endFill=0;" edge="1" parent="1" source="qSacn_zlDJcfNKJARnqx-1" target="qSacn_zlDJcfNKJARnqx-3">
          <mxGeometry relative="1" as="geometry" />
        </mxCell>
        <mxCell id="qSacn_zlDJcfNKJARnqx-1" value="Possuí" style="rhombus;whiteSpace=wrap;html=1;fillColor=#e1d5e7;strokeColor=#9673a6;" vertex="1" parent="1">
          <mxGeometry x="480" y="600" width="120" height="80" as="geometry" />
        </mxCell>
        <mxCell id="qSacn_zlDJcfNKJARnqx-11" style="edgeStyle=orthogonalEdgeStyle;rounded=0;orthogonalLoop=1;jettySize=auto;html=1;entryX=0.5;entryY=0;entryDx=0;entryDy=0;endArrow=none;endFill=0;" edge="1" parent="1" source="qSacn_zlDJcfNKJARnqx-3" target="qSacn_zlDJcfNKJARnqx-4">
          <mxGeometry relative="1" as="geometry" />
        </mxCell>
        <mxCell id="qSacn_zlDJcfNKJARnqx-3" value="Colaboradores" style="rounded=0;whiteSpace=wrap;html=1;fillColor=#ffe6cc;strokeColor=#d79b00;" vertex="1" parent="1">
          <mxGeometry x="480" y="720" width="120" height="80" as="geometry" />
        </mxCell>
        <mxCell id="qSacn_zlDJcfNKJARnqx-10" style="edgeStyle=orthogonalEdgeStyle;rounded=0;orthogonalLoop=1;jettySize=auto;html=1;entryX=0.5;entryY=0;entryDx=0;entryDy=0;endArrow=none;endFill=0;" edge="1" parent="1" source="qSacn_zlDJcfNKJARnqx-4" target="qSacn_zlDJcfNKJARnqx-5">
          <mxGeometry relative="1" as="geometry" />
        </mxCell>
        <mxCell id="qSacn_zlDJcfNKJARnqx-4" value="Possuí" style="rhombus;whiteSpace=wrap;html=1;fillColor=#e1d5e7;strokeColor=#9673a6;" vertex="1" parent="1">
          <mxGeometry x="480" y="840" width="120" height="80" as="geometry" />
        </mxCell>
        <mxCell id="qSacn_zlDJcfNKJARnqx-5" value="Pedido" style="rounded=0;whiteSpace=wrap;html=1;fillColor=#ffe6cc;strokeColor=#d79b00;" vertex="1" parent="1">
          <mxGeometry x="480" y="960" width="120" height="80" as="geometry" />
        </mxCell>
        <mxCell id="qSacn_zlDJcfNKJARnqx-9" style="edgeStyle=orthogonalEdgeStyle;rounded=0;orthogonalLoop=1;jettySize=auto;html=1;entryX=0;entryY=0.5;entryDx=0;entryDy=0;endArrow=none;endFill=0;" edge="1" parent="1" source="qSacn_zlDJcfNKJARnqx-6" target="qSacn_zlDJcfNKJARnqx-5">
          <mxGeometry relative="1" as="geometry" />
        </mxCell>
        <mxCell id="qSacn_zlDJcfNKJARnqx-6" value="Possuí" style="rhombus;whiteSpace=wrap;html=1;fillColor=#e1d5e7;strokeColor=#9673a6;" vertex="1" parent="1">
          <mxGeometry x="320" y="960" width="120" height="80" as="geometry" />
        </mxCell>
        <mxCell id="qSacn_zlDJcfNKJARnqx-8" style="edgeStyle=orthogonalEdgeStyle;rounded=0;orthogonalLoop=1;jettySize=auto;html=1;entryX=0;entryY=0.5;entryDx=0;entryDy=0;endArrow=none;endFill=0;" edge="1" parent="1" source="qSacn_zlDJcfNKJARnqx-7" target="qSacn_zlDJcfNKJARnqx-6">
          <mxGeometry relative="1" as="geometry" />
        </mxCell>
        <mxCell id="qSacn_zlDJcfNKJARnqx-7" value="Cliente" style="rounded=0;whiteSpace=wrap;html=1;fillColor=#ffe6cc;strokeColor=#d79b00;" vertex="1" parent="1">
          <mxGeometry x="160" y="960" width="120" height="80" as="geometry" />
        </mxCell>
        <mxCell id="qSacn_zlDJcfNKJARnqx-14" value="1" style="text;html=1;align=center;verticalAlign=middle;resizable=0;points=[];autosize=1;strokeColor=none;fillColor=none;" vertex="1" parent="1">
          <mxGeometry x="540" y="560" width="30" height="30" as="geometry" />
        </mxCell>
        <mxCell id="qSacn_zlDJcfNKJARnqx-15" value="n" style="text;html=1;align=center;verticalAlign=middle;resizable=0;points=[];autosize=1;strokeColor=none;fillColor=none;" vertex="1" parent="1">
          <mxGeometry x="540" y="690" width="30" height="30" as="geometry" />
        </mxCell>
        <mxCell id="qSacn_zlDJcfNKJARnqx-16" value="n" style="text;html=1;align=center;verticalAlign=middle;resizable=0;points=[];autosize=1;strokeColor=none;fillColor=none;" vertex="1" parent="1">
          <mxGeometry x="540" y="800" width="30" height="30" as="geometry" />
        </mxCell>
        <mxCell id="qSacn_zlDJcfNKJARnqx-17" value="n" style="text;html=1;align=center;verticalAlign=middle;resizable=0;points=[];autosize=1;strokeColor=none;fillColor=none;" vertex="1" parent="1">
          <mxGeometry x="540" y="930" width="30" height="30" as="geometry" />
        </mxCell>
        <mxCell id="qSacn_zlDJcfNKJARnqx-21" value="1" style="text;html=1;align=center;verticalAlign=middle;resizable=0;points=[];autosize=1;strokeColor=none;fillColor=none;" vertex="1" parent="1">
          <mxGeometry x="280" y="970" width="30" height="30" as="geometry" />
        </mxCell>
        <mxCell id="qSacn_zlDJcfNKJARnqx-22" value="n" style="text;html=1;align=center;verticalAlign=middle;resizable=0;points=[];autosize=1;strokeColor=none;fillColor=none;" vertex="1" parent="1">
          <mxGeometry x="450" y="970" width="30" height="30" as="geometry" />
        </mxCell>
      </root>
    </mxGraphModel>
  </diagram>
</mxfile>
